HIERARCHY
ROOT Hips
{
	OFFSET 0.000000 8.830580 0.000000
	CHANNELS 6 Xposition Yposition Zposition Zrotation Yrotation Xrotation 
	JOINT Spine
	{
		OFFSET 0.000000 0.010000 0.000000
		CHANNELS 3 Zrotation Yrotation Xrotation
		JOINT Spine1
		{
			OFFSET 0.000000 2.459130 0.000000
			CHANNELS 3 Zrotation Yrotation Xrotation
			JOINT Neck
			{
				OFFSET 0.000000 2.484630 0.000000
				CHANNELS 3 Zrotation Yrotation Xrotation
				JOINT Head_virtual
				{
					OFFSET 0.000000 0.000000 0.000000
					CHANNELS 3 Zrotation Yrotation Xrotation
					JOINT Head
					{
						OFFSET 0.000000 0.927525 0.000000
						CHANNELS 3 Zrotation Yrotation Xrotation
						End Site
						{
							OFFSET 0.000000 0.000000 0.000000
						}
					}
				}
				JOINT LeftUpArm_virtual
				{
					OFFSET 0.000000 0.000000 0.000000
					CHANNELS 3 Zrotation Yrotation Xrotation
					JOINT LeftUpArm
					{
						OFFSET 1.248820 0.000000 0.000000
						CHANNELS 3 Zrotation Yrotation Xrotation
						JOINT LeftForeArm
						{
							OFFSET 2.597580 0.000000 0.000000
							CHANNELS 3 Zrotation Yrotation Xrotation
							JOINT LeftHand
							{
								OFFSET 2.455420 0.000000 0.000000
								CHANNELS 3 Zrotation Yrotation Xrotation
								End Site
								{
									OFFSET 0.000000 0.000000 0.000000
								}
							}
						}
					}
				}
				JOINT RightUpArm_virtual
				{
					OFFSET -0.000000 -0.000000 -0.000000
					CHANNELS 3 Zrotation Yrotation Xrotation
					JOINT RightUpArm
					{
						OFFSET -1.248820 -0.000000 -0.000000
						CHANNELS 3 Zrotation Yrotation Xrotation
						JOINT RightForeArm
						{
							OFFSET -2.597580 -0.000000 -0.000000
							CHANNELS 3 Zrotation Yrotation Xrotation
							JOINT RightHand
							{
								OFFSET -2.455420 -0.000000 -0.000000
								CHANNELS 3 Zrotation Yrotation Xrotation
								End Site
								{
									OFFSET 0.000000 0.000000 0.000000
								}
							}
						}
					}
				}
			}
		}
	}
	JOINT LeftUpLeg
	{
		OFFSET 1.271939 0.000000 0.000000
		CHANNELS 3 Zrotation Yrotation Xrotation
		JOINT LeftLowLeg
		{
			OFFSET 0.000000 -4.342910 0.000000
			CHANNELS 3 Zrotation Yrotation Xrotation
			JOINT LeftFoot
			{
				OFFSET 0.000000 -4.487670 0.000000
				CHANNELS 3 Zrotation Yrotation Xrotation
				JOINT LeftToeBase
				{
					OFFSET 0.000000 0.000000 1.515070
					CHANNELS 3 Zrotation Yrotation Xrotation
					End Site
					{
						OFFSET 0.000000 0.000000 0.000000
					}
				}
			}
		}
	}
	JOINT RightUpLeg
	{
		OFFSET -1.271939 0.000000 0.000000
		CHANNELS 3 Zrotation Yrotation Xrotation
		JOINT RightLowLeg
		{
			OFFSET 0.000000 -4.342910 0.000000
			CHANNELS 3 Zrotation Yrotation Xrotation
			JOINT RightFoot
			{
				OFFSET 0.000000 -4.487670 0.000000
				CHANNELS 3 Zrotation Yrotation Xrotation
				JOINT RightToeBase
				{
					OFFSET 0.000000 0.000000 1.515070
					CHANNELS 3 Zrotation Yrotation Xrotation
					End Site
					{
						OFFSET 0.000000 0.000000 0.000000
					}
				}
			}
		}
	}
}
MOTION
Frames: 5
Frame Time: 0.041667
-12.400461 9.229085 36.197328 -174.675985 -8.966279 -179.295378 -4.738108 0.079983 -13.232913 10.960108 -3.782928 9.965804 0.000000 0.000000 0.000000 -6.224957 -8.994596 27.943682 17.296254 5.363219 -85.423933 -35.655102 1.641570 8.672860 -33.536201 -15.045600 26.997101 180.000000 -66.726997 -180.000000 65.555603 -2.774120 -4.141710 27.502600 -1.449630 20.199005 31.324699 19.752701 11.691400 180.000000 72.832001 180.000000 -88.592003 19.519899 -9.791340 -0.680480 5.791997 -2.648883 0.000000 0.000000 8.828580 -12.249830 3.092633 1.418967 0.000000 0.000000 -30.898600 1.111646 8.979526 -13.346236 0.000000 0.000000 20.330400 18.984448 -8.374262 8.578322 0.000000 0.000000 -33.582399 
-12.402062 9.234363 36.135257 -174.456470 -9.266216 -179.230856 -4.491733 0.122086 -13.696532 11.041468 -3.847429 10.107919 0.000000 0.000000 0.000000 -6.462335 -8.789156 27.994821 17.248559 5.262191 -85.666500 -35.744900 1.719810 8.469590 -33.614201 -15.631100 27.612499 180.000000 -65.988998 -180.000000 63.937302 -1.005770 -3.830710 27.452200 -1.263320 20.420990 31.147800 20.147100 11.769400 -180.000000 72.305000 -180.000000 -88.717697 19.352800 -9.536290 -0.400989 5.339983 -2.429721 0.000000 0.000000 8.910370 -12.339096 3.240048 1.114582 0.000000 0.000000 -30.819200 0.889716 10.426499 -12.875563 0.000000 0.000000 18.286501 18.819287 -9.385459 9.165560 0.000000 0.000000 -33.270100 
-12.402973 9.238517 36.075056 -174.252366 -9.527814 -179.261532 -3.511892 0.103386 -14.424224 9.551699 -4.384064 11.074611 0.000000 0.000000 0.000000 -6.612638 -8.045156 27.567306 17.023365 5.555674 -85.944953 -35.185001 2.296740 7.633250 -33.722401 -16.150000 28.059000 180.000000 -65.348999 -180.000000 62.676800 0.461122 -2.962350 28.108700 -0.297777 20.545013 30.972799 20.488701 11.925700 180.000000 71.860001 180.000000 -88.996696 19.526400 -9.434890 -0.134010 4.873228 -2.107221 0.000000 0.000000 8.964180 -12.392074 3.473388 0.792656 0.000000 0.000000 -30.683600 0.817316 11.447798 -12.439822 0.000000 0.000000 17.103399 19.302330 -10.055303 9.513324 0.000000 0.000000 -33.872999 
-12.401416 9.242048 36.015944 -174.078525 -9.801251 -179.269285 -2.905665 0.227519 -14.979321 8.707818 -4.575569 11.609312 0.000000 0.000000 0.000000 -6.550987 -7.871994 27.358862 16.804391 5.819057 -86.160796 -34.769299 2.409060 7.477230 -33.876701 -16.543400 28.226200 -180.000000 -64.762001 -180.000000 61.530899 1.687840 -2.368960 28.478300 -0.041818 20.378998 30.864700 20.843399 12.163400 -180.000000 71.530998 -180.000000 -88.894096 19.678200 -9.082470 0.115005 4.516671 -1.827437 0.000000 0.000000 9.033400 -12.471868 3.589862 0.501985 0.000000 0.000000 -30.653000 0.969853 11.360447 -12.020730 0.000000 0.000000 16.532200 19.111260 -10.169702 9.591125 0.000000 0.000000 -33.450600 
-12.395970 9.245235 35.959301 -173.996921 -10.081436 -179.260574 -3.213283 0.198589 -15.188594 9.577974 -4.433314 11.388529 0.000000 0.000000 0.000000 -6.681571 -8.132501 27.474335 16.702831 5.558720 -86.294408 -34.988400 2.111570 8.056750 -34.025600 -16.797800 28.055099 -180.000000 -64.317001 180.000000 60.539299 2.299600 -2.219470 28.045401 -0.315158 20.139008 30.855801 21.152500 12.513100 180.000000 71.204002 180.000000 -88.903503 19.680700 -8.663490 0.312262 4.568763 -1.614622 0.000000 0.000000 9.195640 -12.510756 3.320646 0.327049 0.000000 0.000000 -30.507000 1.237331 10.276915 -11.551206 0.000000 0.000000 16.382000 19.229987 -9.393996 9.584787 0.000000 0.000000 -34.011801 
